<?xml version="1.0" encoding="utf-8"?>
<!-- Generator: Adobe Illustrator 22.1.0, SVG Export Plug-In . SVG Version: 6.00 Build 0)  -->
<svg version="1.1" id="Layer_1" xmlns="http://www.w3.org/2000/svg" xmlns:xlink="http://www.w3.org/1999/xlink" x="0px" y="0px"
	 viewBox="0 0 700 500" style="enable-background:new 0 0 700 500;" xml:space="preserve">
<style type="text/css">
	.st0{opacity:0.67;}
	.st1{fill:#59C7DE;stroke:#1E1E1E;stroke-width:0.5;stroke-miterlimit:10;}
	.st2{fill:#FFC179;stroke:#1E1E1E;stroke-width:0.5;stroke-miterlimit:10;}
	.st3{fill:#62B8F4;stroke:#1E1E1E;stroke-width:0.5;stroke-miterlimit:10;}
	.st4{fill:#55A357;stroke:#1E1E1E;stroke-width:0.5;stroke-miterlimit:10;}
	.st5{fill:#5EB7EA;stroke:#1E1E1E;stroke-width:0.5;stroke-miterlimit:10;}
	.st6{fill:#CBFFB8;stroke:#1E1E1E;stroke-width:0.5;stroke-miterlimit:10;}
	.st7{fill:#FFB6B6;stroke:#1E1E1E;stroke-width:0.5;stroke-miterlimit:10;}
	.st8{fill:#FFD695;stroke:#1E1E1E;stroke-width:0.5;stroke-miterlimit:10;}
	.st9{fill:#5695D8;stroke:#1E1E1E;stroke-width:0.5;stroke-miterlimit:10;}
	.st10{opacity:0.9;fill:#3B933B;stroke:#1E1E1E;stroke-width:0.5;stroke-miterlimit:10;}
	.st11{fill:#4D934D;stroke:#1E1E1E;stroke-width:0.5;stroke-miterlimit:10;}
	.st12{fill:#76A1FF;stroke:#1E1E1E;stroke-width:0.5;stroke-miterlimit:10;}
	.st13{fill:#BD4C8B;stroke:#1E1E1E;stroke-width:0.5;stroke-miterlimit:10;}
</style>
<g id="NS" class="st0">
	<polygon class="st1" points="623.1,366 613.3,366 608.4,374.5 613.3,383 623.1,383 628,374.5 	"/>
	<polygon class="st1" points="623.1,349 613.3,349 608.4,357.5 613.3,366 623.1,366 628,357.5 	"/>
	<polygon class="st1" points="608.4,391.5 598.6,391.5 593.7,400 598.6,408.5 608.4,408.5 613.3,400 	"/>
	<polygon class="st1" points="608.4,374.5 598.6,374.5 593.7,383 598.6,391.5 608.4,391.5 613.3,383 	"/>
</g>
<g id="NB" class="st0">
	<polygon class="st2" points="593.7,366 583.9,366 579,374.5 583.9,383 593.7,383 598.6,374.5 	"/>
	<polygon class="st2" points="579,374.5 569.2,374.5 564.3,383 569.2,391.5 579,391.5 583.9,383 	"/>
	<polygon class="st2" points="579,357.5 569.2,357.5 564.3,366 569.2,374.5 579,374.5 583.9,366 	"/>
	<polygon class="st2" points="564.3,366 554.5,366 549.6,374.5 554.5,383 564.3,383 569.2,374.5 	"/>
</g>
<g id="NL">
	<polygon class="st3" points="652.5,281 642.7,281 637.8,289.5 642.7,298 652.5,298 657.4,289.5 	"/>
	<polygon class="st3" points="637.8,289.5 628,289.5 623.1,298 628,306.5 637.8,306.5 642.7,298 	"/>
	<polygon class="st3" points="623.1,298 613.3,298 608.4,306.5 613.3,315 623.1,315 628,306.5 	"/>
	<polygon class="st3" points="623.1,281 613.3,281 608.4,289.5 613.3,298 623.1,298 628,289.5 	"/>
	<polygon class="st3" points="608.4,306.5 598.6,306.5 593.7,315 598.6,323.5 608.4,323.5 613.3,315 	"/>
	<polygon class="st3" points="608.4,289.5 598.6,289.5 593.7,298 598.6,306.5 608.4,306.5 613.3,298 	"/>
	<polygon class="st3" points="608.4,272.5 598.6,272.5 593.7,281 598.6,289.5 608.4,289.5 613.3,281 	"/>
	<polygon class="st3" points="593.7,281 583.9,281 579,289.5 583.9,298 593.7,298 598.6,289.5 	"/>
	<polygon class="st3" points="593.7,264 583.9,264 579,272.5 583.9,281 593.7,281 598.6,272.5 	"/>
	<polygon class="st3" points="579,289.5 569.2,289.5 564.3,298 569.2,306.5 579,306.5 583.9,298 	"/>
	<polygon class="st3" points="579,272.5 569.2,272.5 564.3,281 569.2,289.5 579,289.5 583.9,281 	"/>
	<polygon class="st3" points="579,255.5 569.2,255.5 564.3,264 569.2,272.5 579,272.5 583.9,264 	"/>
	<polygon class="st3" points="564.3,298 554.5,298 549.6,306.5 554.5,315 564.3,315 569.2,306.5 	"/>
	<polygon class="st3" points="564.3,281 554.5,281 549.6,289.5 554.5,298 564.3,298 569.2,289.5 	"/>
	<polygon class="st3" points="564.3,264 554.5,264 549.6,272.5 554.5,281 564.3,281 569.2,272.5 	"/>
	<polygon class="st3" points="549.6,306.5 539.8,306.5 534.8,315 539.8,323.5 549.6,323.5 554.5,315 	"/>
	<polygon class="st3" points="549.6,289.5 539.8,289.5 534.8,298 539.8,306.5 549.6,306.5 554.5,298 	"/>
	<polygon class="st3" points="549.6,272.5 539.8,272.5 534.8,281 539.8,289.5 549.6,289.5 554.5,281 	"/>
	<polygon class="st3" points="549.6,255.5 539.8,255.5 534.8,264 539.8,272.5 549.6,272.5 554.5,264 	"/>
	<polygon class="st3" points="534.9,298 525,298 520.1,306.5 525,315 534.9,315 539.8,306.5 	"/>
	<polygon class="st3" points="534.9,247 525,247 520.1,255.5 525,264 534.9,264 539.8,255.5 	"/>
	<polygon class="st3" points="520.2,238.5 510.3,238.5 505.4,247 510.3,255.5 520.2,255.5 525.1,247 	"/>
	<polygon class="st3" points="505.5,230 495.6,230 490.7,238.5 495.6,247 505.5,247 510.4,238.5 	"/>
</g>
<g id="QC" class="st0">
	<polygon class="st4" points="593.7,332 583.9,332 579,340.5 583.9,349 593.7,349 598.6,340.5 	"/>
	<polygon class="st4" points="593.7,298 583.9,298 579,306.5 583.9,315 593.7,315 598.6,306.5 	"/>
	<polygon class="st4" points="579,340.5 569.2,340.5 564.3,349 569.2,357.5 579,357.5 583.9,349 	"/>
	<polygon class="st4" points="579,323.5 569.2,323.5 564.3,332 569.2,340.5 579,340.5 583.9,332 	"/>
	<polygon class="st4" points="579,306.5 569.2,306.5 564.3,315 569.2,323.5 579,323.5 583.9,315 	"/>
	<polygon class="st4" points="564.3,349 554.5,349 549.6,357.5 554.5,366 564.3,366 569.2,357.5 	"/>
	<polygon class="st4" points="564.3,315 554.5,315 549.6,323.5 554.5,332 564.3,332 569.2,323.5 	"/>
	<polygon class="st4" points="549.6,408.5 539.8,408.5 534.8,417 539.8,425.5 549.6,425.5 554.5,417 	"/>
	<polygon class="st4" points="549.6,391.5 539.8,391.5 534.8,400 539.8,408.5 549.6,408.5 554.5,400 	"/>
	<polygon class="st4" points="549.6,374.5 539.8,374.5 534.8,383 539.8,391.5 549.6,391.5 554.5,383 	"/>
	<polygon class="st4" points="549.6,357.5 539.8,357.5 534.8,366 539.8,374.5 549.6,374.5 554.5,366 	"/>
	<polygon class="st4" points="549.6,340.5 539.8,340.5 534.8,349 539.8,357.5 549.6,357.5 554.5,349 	"/>
	<polygon class="st4" points="549.6,323.5 539.8,323.5 534.8,332 539.8,340.5 549.6,340.5 554.5,332 	"/>
	<polygon class="st4" points="534.9,417 525,417 520.1,425.5 525,434 534.9,434 539.8,425.5 	"/>
	<polygon class="st4" points="534.9,400 525,400 520.1,408.5 525,417 534.9,417 539.8,408.5 	"/>
	<polygon class="st4" points="534.9,383 525,383 520.1,391.5 525,400 534.9,400 539.8,391.5 	"/>
	<polygon class="st4" points="534.9,366 525,366 520.1,374.5 525,383 534.9,383 539.8,374.5 	"/>
	<polygon class="st4" points="534.9,349 525,349 520.1,357.5 525,366 534.9,366 539.8,357.5 	"/>
	<polygon class="st4" points="534.9,332 525,332 520.1,340.5 525,349 534.9,349 539.8,340.5 	"/>
	<polygon class="st4" points="534.9,315 525,315 520.1,323.5 525,332 534.9,332 539.8,323.5 	"/>
	<polygon class="st4" points="534.9,281 525,281 520.1,289.5 525,298 534.9,298 539.8,289.5 	"/>
	<polygon class="st4" points="534.9,264 525,264 520.1,272.5 525,281 534.9,281 539.8,272.5 	"/>
	<polygon class="st4" points="520.2,425.5 510.3,425.5 505.4,434 510.3,442.5 520.2,442.5 525.1,434 	"/>
	<polygon class="st4" points="520.2,408.5 510.3,408.5 505.4,417 510.3,425.5 520.2,425.5 525.1,417 	"/>
	<polygon class="st4" points="520.2,391.5 510.3,391.5 505.4,400 510.3,408.5 520.2,408.5 525.1,400 	"/>
	<polygon class="st4" points="520.2,374.5 510.3,374.5 505.4,383 510.3,391.5 520.2,391.5 525.1,383 	"/>
	<polygon class="st4" points="520.2,357.5 510.3,357.5 505.4,366 510.3,374.5 520.2,374.5 525.1,366 	"/>
	<polygon class="st4" points="520.2,340.5 510.3,340.5 505.4,349 510.3,357.5 520.2,357.5 525.1,349 	"/>
	<polygon class="st4" points="520.2,323.5 510.3,323.5 505.4,332 510.3,340.5 520.2,340.5 525.1,332 	"/>
	<polygon class="st4" points="520.2,306.5 510.3,306.5 505.4,315 510.3,323.5 520.2,323.5 525.1,315 	"/>
	<polygon class="st4" points="520.2,289.5 510.3,289.5 505.4,298 510.3,306.5 520.2,306.5 525.1,298 	"/>
	<polygon class="st4" points="520.2,272.5 510.3,272.5 505.4,281 510.3,289.5 520.2,289.5 525.1,281 	"/>
	<polygon class="st4" points="520.2,255.5 510.3,255.5 505.4,264 510.3,272.5 520.2,272.5 525.1,264 	"/>
	<polygon class="st4" points="505.5,417 495.6,417 490.7,425.5 495.6,434 505.5,434 510.4,425.5 	"/>
	<polygon class="st4" points="505.5,400 495.6,400 490.7,408.5 495.6,417 505.5,417 510.4,408.5 	"/>
	<polygon class="st4" points="505.5,383 495.6,383 490.7,391.5 495.6,400 505.5,400 510.4,391.5 	"/>
	<polygon class="st4" points="505.5,366 495.6,366 490.7,374.5 495.6,383 505.5,383 510.4,374.5 	"/>
	<polygon class="st4" points="505.5,349 495.6,349 490.7,357.5 495.6,366 505.5,366 510.4,357.5 	"/>
	<polygon class="st4" points="505.5,332 495.6,332 490.7,340.5 495.6,349 505.5,349 510.4,340.5 	"/>
	<polygon class="st4" points="505.5,315 495.6,315 490.7,323.5 495.6,332 505.5,332 510.4,323.5 	"/>
	<polygon class="st4" points="505.5,298 495.6,298 490.7,306.5 495.6,315 505.5,315 510.4,306.5 	"/>
	<polygon class="st4" points="505.5,281 495.6,281 490.7,289.5 495.6,298 505.5,298 510.4,289.5 	"/>
	<polygon class="st4" points="505.5,264 495.6,264 490.7,272.5 495.6,281 505.5,281 510.4,272.5 	"/>
	<polygon class="st4" points="505.5,247 495.6,247 490.7,255.5 495.6,264 505.5,264 510.4,255.5 	"/>
	<polygon class="st4" points="490.7,408.5 480.9,408.5 476,417 480.9,425.5 490.7,425.5 495.7,417 	"/>
	<polygon class="st4" points="490.7,391.5 480.9,391.5 476,400 480.9,408.5 490.7,408.5 495.7,400 	"/>
	<polygon class="st4" points="490.7,374.5 480.9,374.5 476,383 480.9,391.5 490.7,391.5 495.7,383 	"/>
	<polygon class="st4" points="490.7,357.5 480.9,357.5 476,366 480.9,374.5 490.7,374.5 495.7,366 	"/>
	<polygon class="st4" points="490.7,340.5 480.9,340.5 476,349 480.9,357.5 490.7,357.5 495.7,349 	"/>
	<polygon class="st4" points="490.7,323.5 480.9,323.5 476,332 480.9,340.5 490.7,340.5 495.7,332 	"/>
	<polygon class="st4" points="490.7,306.5 480.9,306.5 476,315 480.9,323.5 490.7,323.5 495.7,315 	"/>
	<polygon class="st4" points="490.7,289.5 480.9,289.5 476,298 480.9,306.5 490.7,306.5 495.7,298 	"/>
	<polygon class="st4" points="490.7,272.5 480.9,272.5 476,281 480.9,289.5 490.7,289.5 495.7,281 	"/>
	<polygon class="st4" points="476,417 466.2,417 461.3,425.5 466.2,434 476,434 481,425.5 	"/>
	<polygon class="st4" points="476,400 466.2,400 461.3,408.5 466.2,417 476,417 481,408.5 	"/>
	<polygon class="st4" points="476,383 466.2,383 461.3,391.5 466.2,400 476,400 481,391.5 	"/>
	<polygon class="st4" points="476,366 466.2,366 461.3,374.5 466.2,383 476,383 481,374.5 	"/>
	<polygon class="st4" points="476,349 466.2,349 461.3,357.5 466.2,366 476,366 481,357.5 	"/>
	<polygon class="st4" points="476,332 466.2,332 461.3,340.5 466.2,349 476,349 481,340.5 	"/>
	<polygon class="st4" points="476,315 466.2,315 461.3,323.5 466.2,332 476,332 481,323.5 	"/>
	<polygon class="st4" points="476,298 466.2,298 461.3,306.5 466.2,315 476,315 481,306.5 	"/>
	<polygon class="st4" points="476,281 466.2,281 461.3,289.5 466.2,298 476,298 481,289.5 	"/>
	<polygon class="st4" points="476,264 466.2,264 461.3,272.5 466.2,281 476,281 481,272.5 	"/>
	<polygon class="st4" points="461.3,374.5 451.5,374.5 446.6,383 451.5,391.5 461.3,391.5 466.2,383 	"/>
	<polygon class="st4" points="461.3,357.5 451.5,357.5 446.6,366 451.5,374.5 461.3,374.5 466.2,366 	"/>
	<polygon class="st4" points="461.3,340.5 451.5,340.5 446.6,349 451.5,357.5 461.3,357.5 466.2,349 	"/>
	<polygon class="st4" points="461.3,323.5 451.5,323.5 446.6,332 451.5,340.5 461.3,340.5 466.2,332 	"/>
	<polygon class="st4" points="461.3,306.5 451.5,306.5 446.6,315 451.5,323.5 461.3,323.5 466.2,315 	"/>
	<polygon class="st4" points="461.3,289.5 451.5,289.5 446.6,298 451.5,306.5 461.3,306.5 466.2,298 	"/>
	<polygon class="st4" points="461.3,272.5 451.5,272.5 446.6,281 451.5,289.5 461.3,289.5 466.2,281 	"/>
	<polygon class="st4" points="461.3,255.5 451.5,255.5 446.6,264 451.5,272.5 461.3,272.5 466.2,264 	"/>
	<polygon class="st4" points="461.3,238.5 451.5,238.5 446.6,247 451.5,255.5 461.3,255.5 466.2,247 	"/>
	<polygon class="st4" points="446.6,349 436.8,349 431.9,357.5 436.8,366 446.6,366 451.5,357.5 	"/>
	<polygon class="st4" points="446.6,332 436.8,332 431.9,340.5 436.8,349 446.6,349 451.5,340.5 	"/>
	<polygon class="st4" points="446.6,298 436.8,298 431.9,306.5 436.8,315 446.6,315 451.5,306.5 	"/>
	<polygon class="st4" points="446.6,281 436.8,281 431.9,289.5 436.8,298 446.6,298 451.5,289.5 	"/>
	<polygon class="st4" points="446.6,264 436.8,264 431.9,272.5 436.8,281 446.6,281 451.5,272.5 	"/>
	<polygon class="st4" points="446.6,247 436.8,247 431.9,255.5 436.8,264 446.6,264 451.5,255.5 	"/>
	<polygon class="st4" points="446.6,230 436.8,230 431.9,238.5 436.8,247 446.6,247 451.5,238.5 	"/>
	<polygon class="st4" points="431.9,272.5 422.1,272.5 417.2,281 422.1,289.5 431.9,289.5 436.8,281 	"/>
	<polygon class="st4" points="431.9,255.5 422.1,255.5 417.2,264 422.1,272.5 431.9,272.5 436.8,264 	"/>
	<polygon class="st4" points="431.9,238.5 422.1,238.5 417.2,247 422.1,255.5 431.9,255.5 436.8,247 	"/>
</g>
<g id="ON" class="st0">
	<polygon class="st5" points="505.5,434 495.6,434 490.7,442.5 495.6,451 505.5,451 510.4,442.5 	"/>
	<polygon class="st5" points="490.7,442.5 480.9,442.5 476,451 480.9,459.5 490.7,459.5 495.7,451 	"/>
	<polygon class="st5" points="490.7,425.5 480.9,425.5 476,434 480.9,442.5 490.7,442.5 495.7,434 	"/>
	<polygon class="st5" points="476,468 466.2,468 461.3,476.5 466.2,485 476,485 481,476.5 	"/>
	<polygon class="st5" points="476,451 466.2,451 461.3,459.5 466.2,468 476,468 481,459.5 	"/>
	<polygon class="st5" points="476,434 466.2,434 461.3,442.5 466.2,451 476,451 481,442.5 	"/>
	<polygon class="st5" points="461.3,476.5 451.5,476.5 446.6,485 451.5,493.5 461.3,493.5 466.2,485 	"/>
	<polygon class="st5" points="461.3,459.5 451.5,459.5 446.6,468 451.5,476.5 461.3,476.5 466.2,468 	"/>
	<polygon class="st5" points="461.3,442.5 451.5,442.5 446.6,451 451.5,459.5 461.3,459.5 466.2,451 	"/>
	<polygon class="st5" points="461.3,425.5 451.5,425.5 446.6,434 451.5,442.5 461.3,442.5 466.2,434 	"/>
	<polygon class="st5" points="461.3,408.5 451.5,408.5 446.6,417 451.5,425.5 461.3,425.5 466.2,417 	"/>
	<polygon class="st5" points="461.3,391.5 451.5,391.5 446.6,400 451.5,408.5 461.3,408.5 466.2,400 	"/>
	<polygon class="st5" points="446.6,434 436.8,434 431.9,442.5 436.8,451 446.6,451 451.5,442.5 	"/>
	<polygon class="st5" points="446.6,417 436.8,417 431.9,425.5 436.8,434 446.6,434 451.5,425.5 	"/>
	<polygon class="st5" points="446.6,400 436.8,400 431.9,408.5 436.8,417 446.6,417 451.5,408.5 	"/>
	<polygon class="st5" points="446.6,383 436.8,383 431.9,391.5 436.8,400 446.6,400 451.5,391.5 	"/>
	<polygon class="st5" points="431.9,425.5 422.1,425.5 417.2,434 422.1,442.5 431.9,442.5 436.8,434 	"/>
	<polygon class="st5" points="431.9,408.5 422.1,408.5 417.2,417 422.1,425.5 431.9,425.5 436.8,417 	"/>
	<polygon class="st5" points="431.9,391.5 422.1,391.5 417.2,400 422.1,408.5 431.9,408.5 436.8,400 	"/>
	<polygon class="st5" points="431.9,374.5 422.1,374.5 417.2,383 422.1,391.5 431.9,391.5 436.8,383 	"/>
	<polygon class="st5" points="431.9,357.5 422.1,357.5 417.2,366 422.1,374.5 431.9,374.5 436.8,366 	"/>
	<polygon class="st5" points="417.2,417 407.4,417 402.5,425.5 407.4,434 417.2,434 422.1,425.5 	"/>
	<polygon class="st5" points="417.2,400 407.4,400 402.5,408.5 407.4,417 417.2,417 422.1,408.5 	"/>
	<polygon class="st5" points="417.2,383 407.4,383 402.5,391.5 407.4,400 417.2,400 422.1,391.5 	"/>
	<polygon class="st5" points="417.2,366 407.4,366 402.5,374.5 407.4,383 417.2,383 422.1,374.5 	"/>
	<polygon class="st5" points="417.2,349 407.4,349 402.5,357.5 407.4,366 417.2,366 422.1,357.5 	"/>
	<polygon class="st5" points="402.5,408.5 392.7,408.5 387.8,417 392.7,425.5 402.5,425.5 407.4,417 	"/>
	<polygon class="st5" points="402.5,391.5 392.7,391.5 387.8,400 392.7,408.5 402.5,408.5 407.4,400 	"/>
	<polygon class="st5" points="402.5,374.5 392.7,374.5 387.8,383 392.7,391.5 402.5,391.5 407.4,383 	"/>
	<polygon class="st5" points="402.5,357.5 392.7,357.5 387.8,366 392.7,374.5 402.5,374.5 407.4,366 	"/>
	<polygon class="st5" points="402.5,340.5 392.7,340.5 387.8,349 392.7,357.5 402.5,357.5 407.4,349 	"/>
	<polygon class="st5" points="387.8,417 378,417 373.1,425.5 378,434 387.8,434 392.7,425.5 	"/>
	<polygon class="st5" points="387.8,400 378,400 373.1,408.5 378,417 387.8,417 392.7,408.5 	"/>
	<polygon class="st5" points="387.8,383 378,383 373.1,391.5 378,400 387.8,400 392.7,391.5 	"/>
	<polygon class="st5" points="387.8,366 378,366 373.1,374.5 378,383 387.8,383 392.7,374.5 	"/>
	<polygon class="st5" points="387.8,349 378,349 373.1,357.5 378,366 387.8,366 392.7,357.5 	"/>
	<polygon class="st5" points="373.1,425.5 363.3,425.5 358.4,434 363.3,442.5 373.1,442.5 378,434 	"/>
	<polygon class="st5" points="373.1,408.5 363.3,408.5 358.4,417 363.3,425.5 373.1,425.5 378,417 	"/>
	<polygon class="st5" points="373.1,391.5 363.3,391.5 358.4,400 363.3,408.5 373.1,408.5 378,400 	"/>
	<polygon class="st5" points="373.1,374.5 363.3,374.5 358.4,383 363.3,391.5 373.1,391.5 378,383 	"/>
	<polygon class="st5" points="373.1,357.5 363.3,357.5 358.4,366 363.3,374.5 373.1,374.5 378,366 	"/>
	<polygon class="st5" points="373.1,340.5 363.3,340.5 358.4,349 363.3,357.5 373.1,357.5 378,349 	"/>
	<polygon class="st5" points="358.4,417 348.6,417 343.7,425.5 348.6,434 358.4,434 363.3,425.5 	"/>
	<polygon class="st5" points="358.4,400 348.6,400 343.7,408.5 348.6,417 358.4,417 363.3,408.5 	"/>
	<polygon class="st5" points="358.4,383 348.6,383 343.7,391.5 348.6,400 358.4,400 363.3,391.5 	"/>
	<polygon class="st5" points="358.4,366 348.6,366 343.7,374.5 348.6,383 358.4,383 363.3,374.5 	"/>
	<polygon class="st5" points="358.4,349 348.6,349 343.7,357.5 348.6,366 358.4,366 363.3,357.5 	"/>
	<polygon class="st5" points="358.4,332 348.6,332 343.7,340.5 348.6,349 358.4,349 363.3,340.5 	"/>
	<polygon class="st5" points="343.7,425.5 333.9,425.5 329,434 333.9,442.5 343.7,442.5 348.6,434 	"/>
	<polygon class="st5" points="343.7,408.5 333.9,408.5 329,417 333.9,425.5 343.7,425.5 348.6,417 	"/>
	<polygon class="st5" points="343.7,391.5 333.9,391.5 329,400 333.9,408.5 343.7,408.5 348.6,400 	"/>
	<polygon class="st5" points="343.7,374.5 333.9,374.5 329,383 333.9,391.5 343.7,391.5 348.6,383 	"/>
	<polygon class="st5" points="343.7,357.5 333.9,357.5 329,366 333.9,374.5 343.7,374.5 348.6,366 	"/>
	<polygon class="st5" points="329,417 319.2,417 314.3,425.5 319.2,434 329,434 333.9,425.5 	"/>
	<polygon class="st5" points="329,400 319.2,400 314.3,408.5 319.2,417 329,417 333.9,408.5 	"/>
	<polygon class="st5" points="329,383 319.2,383 314.3,391.5 319.2,400 329,400 333.9,391.5 	"/>
</g>
<g id="MB" class="st0">
	<polygon class="st6" points="343.7,340.5 333.9,340.5 329,349 333.9,357.5 343.7,357.5 348.6,349 	"/>
	<polygon class="st6" points="343.7,323.5 333.9,323.5 329,332 333.9,340.5 343.7,340.5 348.6,332 	"/>
	<polygon class="st6" points="329,366 319.2,366 314.3,374.5 319.2,383 329,383 333.9,374.5 	"/>
	<polygon class="st6" points="329,349 319.2,349 314.3,357.5 319.2,366 329,366 333.9,357.5 	"/>
	<polygon class="st6" points="329,332 319.2,332 314.3,340.5 319.2,349 329,349 333.9,340.5 	"/>
	<polygon class="st6" points="329,315 319.2,315 314.3,323.5 319.2,332 329,332 333.9,323.5 	"/>
	<polygon class="st6" points="314.3,408.5 304.5,408.5 299.6,417 304.5,425.5 314.3,425.5 319.2,417 	"/>
	<polygon class="st6" points="314.3,391.5 304.5,391.5 299.6,400 304.5,408.5 314.3,408.5 319.2,400 	"/>
	<polygon class="st6" points="314.3,374.5 304.5,374.5 299.6,383 304.5,391.5 314.3,391.5 319.2,383 	"/>
	<polygon class="st6" points="314.3,357.5 304.5,357.5 299.6,366 304.5,374.5 314.3,374.5 319.2,366 	"/>
	<polygon class="st6" points="314.3,340.5 304.5,340.5 299.6,349 304.5,357.5 314.3,357.5 319.2,349 	"/>
	<polygon class="st6" points="314.3,323.5 304.5,323.5 299.6,332 304.5,340.5 314.3,340.5 319.2,332 	"/>
	<polygon class="st6" points="314.3,306.5 304.5,306.5 299.6,315 304.5,323.5 314.3,323.5 319.2,315 	"/>
	<polygon class="st6" points="299.6,417 289.8,417 284.9,425.5 289.8,434 299.6,434 304.5,425.5 	"/>
	<polygon class="st6" points="299.6,400 289.8,400 284.9,408.5 289.8,417 299.6,417 304.5,408.5 	"/>
	<polygon class="st6" points="299.6,383 289.8,383 284.9,391.5 289.8,400 299.6,400 304.5,391.5 	"/>
	<polygon class="st6" points="299.6,366 289.8,366 284.9,374.5 289.8,383 299.6,383 304.5,374.5 	"/>
	<polygon class="st6" points="299.6,349 289.8,349 284.9,357.5 289.8,366 299.6,366 304.5,357.5 	"/>
	<polygon class="st6" points="299.6,332 289.8,332 284.9,340.5 289.8,349 299.6,349 304.5,340.5 	"/>
	<polygon class="st6" points="299.6,315 289.8,315 284.9,323.5 289.8,332 299.6,332 304.5,323.5 	"/>
	<polygon class="st6" points="299.6,298 289.8,298 284.9,306.5 289.8,315 299.6,315 304.5,306.5 	"/>
	<polygon class="st6" points="284.9,408.5 275.1,408.5 270.2,417 275.1,425.5 284.9,425.5 289.8,417 	"/>
	<polygon class="st6" points="284.9,391.5 275.1,391.5 270.2,400 275.1,408.5 284.9,408.5 289.8,400 	"/>
	<polygon class="st6" points="284.9,374.5 275.1,374.5 270.2,383 275.1,391.5 284.9,391.5 289.8,383 	"/>
	<polygon class="st6" points="284.9,357.5 275.1,357.5 270.2,366 275.1,374.5 284.9,374.5 289.8,366 	"/>
	<polygon class="st6" points="284.9,340.5 275.1,340.5 270.2,349 275.1,357.5 284.9,357.5 289.8,349 	"/>
	<polygon class="st6" points="284.9,323.5 275.1,323.5 270.2,332 275.1,340.5 284.9,340.5 289.8,332 	"/>
	<polygon class="st6" points="284.9,306.5 275.1,306.5 270.2,315 275.1,323.5 284.9,323.5 289.8,315 	"/>
	<polygon class="st6" points="270.2,417 260.4,417 255.5,425.5 260.4,434 270.2,434 275.1,425.5 	"/>
	<polygon class="st6" points="270.2,400 260.4,400 255.5,408.5 260.4,417 270.2,417 275.1,408.5 	"/>
	<polygon class="st6" points="270.2,383 260.4,383 255.5,391.5 260.4,400 270.2,400 275.1,391.5 	"/>
	<polygon class="st6" points="270.2,366 260.4,366 255.5,374.5 260.4,383 270.2,383 275.1,374.5 	"/>
	<polygon class="st6" points="270.2,349 260.4,349 255.5,357.5 260.4,366 270.2,366 275.1,357.5 	"/>
	<polygon class="st6" points="270.2,332 260.4,332 255.5,340.5 260.4,349 270.2,349 275.1,340.5 	"/>
	<polygon class="st6" points="270.2,315 260.4,315 255.5,323.5 260.4,332 270.2,332 275.1,323.5 	"/>
</g>
<g id="SK" class="st0">
	<polygon class="st7" points="270.2,298 260.4,298 255.5,306.5 260.4,315 270.2,315 275.1,306.5 	"/>
	<polygon class="st7" points="255.5,425.5 245.7,425.5 240.7,434 245.7,442.5 255.5,442.5 260.4,434 	"/>
	<polygon class="st7" points="255.5,408.5 245.7,408.5 240.7,417 245.7,425.5 255.5,425.5 260.4,417 	"/>
	<polygon class="st7" points="255.5,391.5 245.7,391.5 240.7,400 245.7,408.5 255.5,408.5 260.4,400 	"/>
	<polygon class="st7" points="255.5,374.5 245.7,374.5 240.7,383 245.7,391.5 255.5,391.5 260.4,383 	"/>
	<polygon class="st7" points="255.5,357.5 245.7,357.5 240.7,366 245.7,374.5 255.5,374.5 260.4,366 	"/>
	<polygon class="st7" points="255.5,340.5 245.7,340.5 240.7,349 245.7,357.5 255.5,357.5 260.4,349 	"/>
	<polygon class="st7" points="255.5,323.5 245.7,323.5 240.7,332 245.7,340.5 255.5,340.5 260.4,332 	"/>
	<polygon class="st7" points="255.5,306.5 245.7,306.5 240.7,315 245.7,323.5 255.5,323.5 260.4,315 	"/>
	<polygon class="st7" points="240.8,417 230.9,417 226,425.5 230.9,434 240.8,434 245.7,425.5 	"/>
	<polygon class="st7" points="240.8,400 230.9,400 226,408.5 230.9,417 240.8,417 245.7,408.5 	"/>
	<polygon class="st7" points="240.8,383 230.9,383 226,391.5 230.9,400 240.8,400 245.7,391.5 	"/>
	<polygon class="st7" points="240.8,366 230.9,366 226,374.5 230.9,383 240.8,383 245.7,374.5 	"/>
	<polygon class="st7" points="240.8,349 230.9,349 226,357.5 230.9,366 240.8,366 245.7,357.5 	"/>
	<polygon class="st7" points="240.8,332 230.9,332 226,340.5 230.9,349 240.8,349 245.7,340.5 	"/>
	<polygon class="st7" points="240.8,315 230.9,315 226,323.5 230.9,332 240.8,332 245.7,323.5 	"/>
	<polygon class="st7" points="240.8,298 230.9,298 226,306.5 230.9,315 240.8,315 245.7,306.5 	"/>
	<polygon class="st7" points="226.1,408.5 216.2,408.5 211.3,417 216.2,425.5 226.1,425.5 231,417 	"/>
	<polygon class="st7" points="226.1,391.5 216.2,391.5 211.3,400 216.2,408.5 226.1,408.5 231,400 	"/>
	<polygon class="st7" points="226.1,374.5 216.2,374.5 211.3,383 216.2,391.5 226.1,391.5 231,383 	"/>
	<polygon class="st7" points="226.1,357.5 216.2,357.5 211.3,366 216.2,374.5 226.1,374.5 231,366 	"/>
	<polygon class="st7" points="226.1,340.5 216.2,340.5 211.3,349 216.2,357.5 226.1,357.5 231,349 	"/>
	<polygon class="st7" points="226.1,323.5 216.2,323.5 211.3,332 216.2,340.5 226.1,340.5 231,332 	"/>
	<polygon class="st7" points="226.1,306.5 216.2,306.5 211.3,315 216.2,323.5 226.1,323.5 231,315 	"/>
	<polygon class="st7" points="226.1,289.5 216.2,289.5 211.3,298 216.2,306.5 226.1,306.5 231,298 	"/>
	<polygon class="st7" points="211.4,417 201.5,417 196.6,425.5 201.5,434 211.4,434 216.3,425.5 	"/>
	<polygon class="st7" points="211.4,400 201.5,400 196.6,408.5 201.5,417 211.4,417 216.3,408.5 	"/>
	<polygon class="st7" points="211.4,383 201.5,383 196.6,391.5 201.5,400 211.4,400 216.3,391.5 	"/>
	<polygon class="st7" points="211.4,366 201.5,366 196.6,374.5 201.5,383 211.4,383 216.3,374.5 	"/>
	<polygon class="st7" points="211.4,349 201.5,349 196.6,357.5 201.5,366 211.4,366 216.3,357.5 	"/>
</g>
<g id="NU" class="st0">
	<polygon class="st8" points="329,213 319.2,213 314.3,221.5 319.2,230 329,230 333.9,221.5 	"/>
	<polygon class="st8" points="387.8,247 378,247 373.1,255.5 378,264 387.8,264 392.7,255.5 	"/>
	<polygon class="st8" points="387.8,230 378,230 373.1,238.5 378,247 387.8,247 392.7,238.5 	"/>
	<polygon class="st8" points="373.1,238.5 363.3,238.5 358.4,247 363.3,255.5 373.1,255.5 378,247 	"/>
	<polygon class="st8" points="373.1,221.5 363.3,221.5 358.4,230 363.3,238.5 373.1,238.5 378,230 	"/>
	<polygon class="st8" points="476,213 466.2,213 461.3,221.5 466.2,230 476,230 481,221.5 	"/>
	<polygon class="st8" points="476,196 466.2,196 461.3,204.5 466.2,213 476,213 481,204.5 	"/>
	<polygon class="st8" points="461.3,221.5 451.5,221.5 446.6,230 451.5,238.5 461.3,238.5 466.2,230 	"/>
	<polygon class="st8" points="461.3,204.5 451.5,204.5 446.6,213 451.5,221.5 461.3,221.5 466.2,213 	"/>
	<polygon class="st8" points="461.3,187.5 451.5,187.5 446.6,196 451.5,204.5 461.3,204.5 466.2,196 	"/>
	<polygon class="st8" points="461.3,170.5 451.5,170.5 446.6,179 451.5,187.5 461.3,187.5 466.2,179 	"/>
	<polygon class="st8" points="461.3,153.5 451.5,153.5 446.6,162 451.5,170.5 461.3,170.5 466.2,162 	"/>
	<polygon class="st8" points="446.6,213 436.8,213 431.9,221.5 436.8,230 446.6,230 451.5,221.5 	"/>
	<polygon class="st8" points="446.6,196 436.8,196 431.9,204.5 436.8,213 446.6,213 451.5,204.5 	"/>
	<polygon class="st8" points="446.6,179 436.8,179 431.9,187.5 436.8,196 446.6,196 451.5,187.5 	"/>
	<polygon class="st8" points="446.6,162 436.8,162 431.9,170.5 436.8,179 446.6,179 451.5,170.5 	"/>
	<polygon class="st8" points="446.6,145 436.8,145 431.9,153.5 436.8,162 446.6,162 451.5,153.5 	"/>
	<polygon class="st8" points="431.9,204.5 422.1,204.5 417.2,213 422.1,221.5 431.9,221.5 436.8,213 	"/>
	<polygon class="st8" points="431.9,187.5 422.1,187.5 417.2,196 422.1,204.5 431.9,204.5 436.8,196 	"/>
	<polygon class="st8" points="431.9,170.5 422.1,170.5 417.2,179 422.1,187.5 431.9,187.5 436.8,179 	"/>
	<polygon class="st8" points="431.9,153.5 422.1,153.5 417.2,162 422.1,170.5 431.9,170.5 436.8,162 	"/>
	<polygon class="st8" points="417.2,213 407.4,213 402.5,221.5 407.4,230 417.2,230 422.1,221.5 	"/>
	<polygon class="st8" points="417.2,196 407.4,196 402.5,204.5 407.4,213 417.2,213 422.1,204.5 	"/>
	<polygon class="st8" points="417.2,179 407.4,179 402.5,187.5 407.4,196 417.2,196 422.1,187.5 	"/>
	<polygon class="st8" points="417.2,162 407.4,162 402.5,170.5 407.4,179 417.2,179 422.1,170.5 	"/>
	<polygon class="st8" points="417.2,145 407.4,145 402.5,153.5 407.4,162 417.2,162 422.1,153.5 	"/>
	<polygon class="st8" points="417.2,128 407.4,128 402.5,136.5 407.4,145 417.2,145 422.1,136.5 	"/>
	<polygon class="st8" points="402.5,204.5 392.7,204.5 387.8,213 392.7,221.5 402.5,221.5 407.4,213 	"/>
	<polygon class="st8" points="402.5,170.5 392.7,170.5 387.8,179 392.7,187.5 402.5,187.5 407.4,179 	"/>
	<polygon class="st8" points="402.5,153.5 392.7,153.5 387.8,162 392.7,170.5 402.5,170.5 407.4,162 	"/>
	<polygon class="st8" points="402.5,136.5 392.7,136.5 387.8,145 392.7,153.5 402.5,153.5 407.4,145 	"/>
	<polygon class="st8" points="387.8,145 378,145 373.1,153.5 378,162 387.8,162 392.7,153.5 	"/>
	<polygon class="st8" points="387.8,128 378,128 373.1,136.5 378,145 387.8,145 392.7,136.5 	"/>
	<polygon class="st8" points="373.1,187.5 363.3,187.5 358.4,196 363.3,204.5 373.1,204.5 378,196 	"/>
	<polygon class="st8" points="373.1,136.5 363.3,136.5 358.4,145 363.3,153.5 373.1,153.5 378,145 	"/>
	<polygon class="st8" points="373.1,119.5 363.3,119.5 358.4,128 363.3,136.5 373.1,136.5 378,128 	"/>
	<polygon class="st8" points="358.4,230 348.6,230 343.7,238.5 348.6,247 358.4,247 363.3,238.5 	"/>
	<polygon class="st8" points="358.4,213 348.6,213 343.7,221.5 348.6,230 358.4,230 363.3,221.5 	"/>
	<polygon class="st8" points="358.4,196 348.6,196 343.7,204.5 348.6,213 358.4,213 363.3,204.5 	"/>
	<polygon class="st8" points="358.4,179 348.6,179 343.7,187.5 348.6,196 358.4,196 363.3,187.5 	"/>
	<polygon class="st8" points="358.4,162 348.6,162 343.7,170.5 348.6,179 358.4,179 363.3,170.5 	"/>
	<polygon class="st8" points="358.4,145 348.6,145 343.7,153.5 348.6,162 358.4,162 363.3,153.5 	"/>
	<polygon class="st8" points="358.4,128 348.6,128 343.7,136.5 348.6,145 358.4,145 363.3,136.5 	"/>
	<polygon class="st8" points="358.4,111 348.6,111 343.7,119.5 348.6,128 358.4,128 363.3,119.5 	"/>
	<polygon class="st8" points="343.7,255.5 333.9,255.5 329,264 333.9,272.5 343.7,272.5 348.6,264 	"/>
	<polygon class="st8" points="343.7,238.5 333.9,238.5 329,247 333.9,255.5 343.7,255.5 348.6,247 	"/>
	<polygon class="st8" points="343.7,221.5 333.9,221.5 329,230 333.9,238.5 343.7,238.5 348.6,230 	"/>
	<polygon class="st8" points="343.7,204.5 333.9,204.5 329,213 333.9,221.5 343.7,221.5 348.6,213 	"/>
	<polygon class="st8" points="343.7,187.5 333.9,187.5 329,196 333.9,204.5 343.7,204.5 348.6,196 	"/>
	<polygon class="st8" points="343.7,153.5 333.9,153.5 329,162 333.9,170.5 343.7,170.5 348.6,162 	"/>
	<polygon class="st8" points="343.7,136.5 333.9,136.5 329,145 333.9,153.5 343.7,153.5 348.6,145 	"/>
	<polygon class="st8" points="343.7,119.5 333.9,119.5 329,128 333.9,136.5 343.7,136.5 348.6,128 	"/>
	<polygon class="st8" points="343.7,102.5 333.9,102.5 329,111 333.9,119.5 343.7,119.5 348.6,111 	"/>
	<polygon class="st8" points="343.7,85.5 333.9,85.5 329,94 333.9,102.5 343.7,102.5 348.6,94 	"/>
	<polygon class="st8" points="343.7,68.5 333.9,68.5 329,77 333.9,85.5 343.7,85.5 348.6,77 	"/>
	<polygon class="st8" points="343.7,51.5 333.9,51.5 329,60 333.9,68.5 343.7,68.5 348.6,60 	"/>
	<polygon class="st8" points="343.7,34.5 333.9,34.5 329,43 333.9,51.5 343.7,51.5 348.6,43 	"/>
	<polygon class="st8" points="343.7,17.5 333.9,17.5 329,26 333.9,34.5 343.7,34.5 348.6,26 	"/>
	<polygon class="st8" points="329,264 319.2,264 314.3,272.5 319.2,281 329,281 333.9,272.5 	"/>
	<polygon class="st8" points="329,247 319.2,247 314.3,255.5 319.2,264 329,264 333.9,255.5 	"/>
	<polygon class="st8" points="329,230 319.2,230 314.3,238.5 319.2,247 329,247 333.9,238.5 	"/>
	<polygon class="st8" points="329,196 319.2,196 314.3,204.5 319.2,213 329,213 333.9,204.5 	"/>
	<polygon class="st8" points="329,145 319.2,145 314.3,153.5 319.2,162 329,162 333.9,153.5 	"/>
	<polygon class="st8" points="329,128 319.2,128 314.3,136.5 319.2,145 329,145 333.9,136.5 	"/>
	<polygon class="st8" points="329,111 319.2,111 314.3,119.5 319.2,128 329,128 333.9,119.5 	"/>
	<polygon class="st8" points="329,94 319.2,94 314.3,102.5 319.2,111 329,111 333.9,102.5 	"/>
	<polygon class="st8" points="329,77 319.2,77 314.3,85.5 319.2,94 329,94 333.9,85.5 	"/>
	<polygon class="st8" points="329,60 319.2,60 314.3,68.5 319.2,77 329,77 333.9,68.5 	"/>
	<polygon class="st8" points="329,43 319.2,43 314.3,51.5 319.2,60 329,60 333.9,51.5 	"/>
	<polygon class="st8" points="329,26 319.2,26 314.3,34.5 319.2,43 329,43 333.9,34.5 	"/>
	<polygon class="st8" points="329,9 319.2,9 314.3,17.5 319.2,26 329,26 333.9,17.5 	"/>
	<polygon class="st8" points="314.3,289.5 304.5,289.5 299.6,298 304.5,306.5 314.3,306.5 319.2,298 	"/>
	<polygon class="st8" points="314.3,272.5 304.5,272.5 299.6,281 304.5,289.5 314.3,289.5 319.2,281 	"/>
	<polygon class="st8" points="314.3,255.5 304.5,255.5 299.6,264 304.5,272.5 314.3,272.5 319.2,264 	"/>
	<polygon class="st8" points="314.3,238.5 304.5,238.5 299.6,247 304.5,255.5 314.3,255.5 319.2,247 	"/>
	<polygon class="st8" points="314.3,221.5 304.5,221.5 299.6,230 304.5,238.5 314.3,238.5 319.2,230 	"/>
	<polygon class="st8" points="314.3,204.5 304.5,204.5 299.6,213 304.5,221.5 314.3,221.5 319.2,213 	"/>
	<polygon class="st8" points="314.3,187.5 304.5,187.5 299.6,196 304.5,204.5 314.3,204.5 319.2,196 	"/>
	<polygon class="st8" points="314.3,170.5 304.5,170.5 299.6,179 304.5,187.5 314.3,187.5 319.2,179 	"/>
	<polygon class="st8" points="314.3,136.5 304.5,136.5 299.6,145 304.5,153.5 314.3,153.5 319.2,145 	"/>
	<polygon class="st8" points="314.3,119.5 304.5,119.5 299.6,128 304.5,136.5 314.3,136.5 319.2,128 	"/>
	<polygon class="st8" points="314.3,102.5 304.5,102.5 299.6,111 304.5,119.5 314.3,119.5 319.2,111 	"/>
	<polygon class="st8" points="314.3,85.5 304.5,85.5 299.6,94 304.5,102.5 314.3,102.5 319.2,94 	"/>
	<polygon class="st8" points="314.3,68.5 304.5,68.5 299.6,77 304.5,85.5 314.3,85.5 319.2,77 	"/>
	<polygon class="st8" points="314.3,51.5 304.5,51.5 299.6,60 304.5,68.5 314.3,68.5 319.2,60 	"/>
	<polygon class="st8" points="314.3,34.5 304.5,34.5 299.6,43 304.5,51.5 314.3,51.5 319.2,43 	"/>
	<polygon class="st8" points="314.3,17.5 304.5,17.5 299.6,26 304.5,34.5 314.3,34.5 319.2,26 	"/>
	<polygon class="st8" points="299.6,281 289.8,281 284.9,289.5 289.8,298 299.6,298 304.5,289.5 	"/>
	<polygon class="st8" points="299.6,264 289.8,264 284.9,272.5 289.8,281 299.6,281 304.5,272.5 	"/>
	<polygon class="st8" points="299.6,247 289.8,247 284.9,255.5 289.8,264 299.6,264 304.5,255.5 	"/>
	<polygon class="st8" points="299.6,230 289.8,230 284.9,238.5 289.8,247 299.6,247 304.5,238.5 	"/>
	<polygon class="st8" points="299.6,213 289.8,213 284.9,221.5 289.8,230 299.6,230 304.5,221.5 	"/>
	<polygon class="st8" points="299.6,196 289.8,196 284.9,204.5 289.8,213 299.6,213 304.5,204.5 	"/>
	<polygon class="st8" points="299.6,179 289.8,179 284.9,187.5 289.8,196 299.6,196 304.5,187.5 	"/>
	<polygon class="st8" points="299.6,162 289.8,162 284.9,170.5 289.8,179 299.6,179 304.5,170.5 	"/>
	<polygon class="st8" points="299.6,145 289.8,145 284.9,153.5 289.8,162 299.6,162 304.5,153.5 	"/>
	<polygon class="st8" points="299.6,128 289.8,128 284.9,136.5 289.8,145 299.6,145 304.5,136.5 	"/>
	<polygon class="st8" points="299.6,111 289.8,111 284.9,119.5 289.8,128 299.6,128 304.5,119.5 	"/>
	<polygon class="st8" points="299.6,94 289.8,94 284.9,102.5 289.8,111 299.6,111 304.5,102.5 	"/>
	<polygon class="st8" points="299.6,77 289.8,77 284.9,85.5 289.8,94 299.6,94 304.5,85.5 	"/>
	<polygon class="st8" points="299.6,60 289.8,60 284.9,68.5 289.8,77 299.6,77 304.5,68.5 	"/>
	<polygon class="st8" points="299.6,43 289.8,43 284.9,51.5 289.8,60 299.6,60 304.5,51.5 	"/>
	<polygon class="st8" points="299.6,26 289.8,26 284.9,34.5 289.8,43 299.6,43 304.5,34.5 	"/>
	<polygon class="st8" points="284.9,289.5 275.1,289.5 270.2,298 275.1,306.5 284.9,306.5 289.8,298 	"/>
	<polygon class="st8" points="284.9,272.5 275.1,272.5 270.2,281 275.1,289.5 284.9,289.5 289.8,281 	"/>
	<polygon class="st8" points="284.9,255.5 275.1,255.5 270.2,264 275.1,272.5 284.9,272.5 289.8,264 	"/>
	<polygon class="st8" points="284.9,238.5 275.1,238.5 270.2,247 275.1,255.5 284.9,255.5 289.8,247 	"/>
	<polygon class="st8" points="284.9,221.5 275.1,221.5 270.2,230 275.1,238.5 284.9,238.5 289.8,230 	"/>
	<polygon class="st8" points="284.9,204.5 275.1,204.5 270.2,213 275.1,221.5 284.9,221.5 289.8,213 	"/>
	<polygon class="st8" points="284.9,187.5 275.1,187.5 270.2,196 275.1,204.5 284.9,204.5 289.8,196 	"/>
	<polygon class="st8" points="284.9,170.5 275.1,170.5 270.2,179 275.1,187.5 284.9,187.5 289.8,179 	"/>
	<polygon class="st8" points="284.9,153.5 275.1,153.5 270.2,162 275.1,170.5 284.9,170.5 289.8,162 	"/>
	<polygon class="st8" points="284.9,136.5 275.1,136.5 270.2,145 275.1,153.5 284.9,153.5 289.8,145 	"/>
	<polygon class="st8" points="284.9,119.5 275.1,119.5 270.2,128 275.1,136.5 284.9,136.5 289.8,128 	"/>
	<polygon class="st8" points="284.9,102.5 275.1,102.5 270.2,111 275.1,119.5 284.9,119.5 289.8,111 	"/>
	<polygon class="st8" points="284.9,85.5 275.1,85.5 270.2,94 275.1,102.5 284.9,102.5 289.8,94 	"/>
	<polygon class="st8" points="284.9,68.5 275.1,68.5 270.2,77 275.1,85.5 284.9,85.5 289.8,77 	"/>
	<polygon class="st8" points="284.9,51.5 275.1,51.5 270.2,60 275.1,68.5 284.9,68.5 289.8,60 	"/>
	<polygon class="st8" points="270.2,230 260.4,230 255.5,238.5 260.4,247 270.2,247 275.1,238.5 	"/>
	<polygon class="st8" points="270.2,213 260.4,213 255.5,221.5 260.4,230 270.2,230 275.1,221.5 	"/>
	<polygon class="st8" points="270.2,196 260.4,196 255.5,204.5 260.4,213 270.2,213 275.1,204.5 	"/>
	<polygon class="st8" points="270.2,179 260.4,179 255.5,187.5 260.4,196 270.2,196 275.1,187.5 	"/>
	<polygon class="st8" points="270.2,162 260.4,162 255.5,170.5 260.4,179 270.2,179 275.1,170.5 	"/>
	<polygon class="st8" points="270.2,145 260.4,145 255.5,153.5 260.4,162 270.2,162 275.1,153.5 	"/>
	<polygon class="st8" points="270.2,128 260.4,128 255.5,136.5 260.4,145 270.2,145 275.1,136.5 	"/>
	<polygon class="st8" points="270.2,111 260.4,111 255.5,119.5 260.4,128 270.2,128 275.1,119.5 	"/>
	<polygon class="st8" points="270.2,94 260.4,94 255.5,102.5 260.4,111 270.2,111 275.1,102.5 	"/>
	<polygon class="st8" points="270.2,77 260.4,77 255.5,85.5 260.4,94 270.2,94 275.1,85.5 	"/>
	<polygon class="st8" points="270.2,60 260.4,60 255.5,68.5 260.4,77 270.2,77 275.1,68.5 	"/>
	<polygon class="st8" points="255.5,221.5 245.7,221.5 240.7,230 245.7,238.5 255.5,238.5 260.4,230 	"/>
	<polygon class="st8" points="255.5,204.5 245.7,204.5 240.7,213 245.7,221.5 255.5,221.5 260.4,213 	"/>
	<polygon class="st8" points="255.5,187.5 245.7,187.5 240.7,196 245.7,204.5 255.5,204.5 260.4,196 	"/>
	<polygon class="st8" points="255.5,170.5 245.7,170.5 240.7,179 245.7,187.5 255.5,187.5 260.4,179 	"/>
	<polygon class="st8" points="255.5,153.5 245.7,153.5 240.7,162 245.7,170.5 255.5,170.5 260.4,162 	"/>
	<polygon class="st8" points="255.5,136.5 245.7,136.5 240.7,145 245.7,153.5 255.5,153.5 260.4,145 	"/>
	<polygon class="st8" points="255.5,119.5 245.7,119.5 240.7,128 245.7,136.5 255.5,136.5 260.4,128 	"/>
	<polygon class="st8" points="255.5,102.5 245.7,102.5 240.7,111 245.7,119.5 255.5,119.5 260.4,111 	"/>
	<polygon class="st8" points="255.5,85.5 245.7,85.5 240.7,94 245.7,102.5 255.5,102.5 260.4,94 	"/>
	<polygon class="st8" points="255.5,68.5 245.7,68.5 240.7,77 245.7,85.5 255.5,85.5 260.4,77 	"/>
	<polygon class="st8" points="240.8,230 230.9,230 226,238.5 230.9,247 240.8,247 245.7,238.5 	"/>
	<polygon class="st8" points="240.8,213 230.9,213 226,221.5 230.9,230 240.8,230 245.7,221.5 	"/>
	<polygon class="st8" points="240.8,196 230.9,196 226,204.5 230.9,213 240.8,213 245.7,204.5 	"/>
	<polygon class="st8" points="240.8,179 230.9,179 226,187.5 230.9,196 240.8,196 245.7,187.5 	"/>
	<polygon class="st8" points="240.8,162 230.9,162 226,170.5 230.9,179 240.8,179 245.7,170.5 	"/>
	<polygon class="st8" points="240.8,145 230.9,145 226,153.5 230.9,162 240.8,162 245.7,153.5 	"/>
	<polygon class="st8" points="240.8,128 230.9,128 226,136.5 230.9,145 240.8,145 245.7,136.5 	"/>
	<polygon class="st8" points="240.8,111 230.9,111 226,119.5 230.9,128 240.8,128 245.7,119.5 	"/>
	<polygon class="st8" points="240.8,94 230.9,94 226,102.5 230.9,111 240.8,111 245.7,102.5 	"/>
	<polygon class="st8" points="240.8,77 230.9,77 226,85.5 230.9,94 240.8,94 245.7,85.5 	"/>
	<polygon class="st8" points="226.1,221.5 216.2,221.5 211.3,230 216.2,238.5 226.1,238.5 231,230 	"/>
	<polygon class="st8" points="226.1,204.5 216.2,204.5 211.3,213 216.2,221.5 226.1,221.5 231,213 	"/>
	<polygon class="st8" points="226.1,187.5 216.2,187.5 211.3,196 216.2,204.5 226.1,204.5 231,196 	"/>
	<polygon class="st8" points="226.1,170.5 216.2,170.5 211.3,179 216.2,187.5 226.1,187.5 231,179 	"/>
	<polygon class="st8" points="226.1,153.5 216.2,153.5 211.3,162 216.2,170.5 226.1,170.5 231,162 	"/>
	<polygon class="st8" points="226.1,136.5 216.2,136.5 211.3,145 216.2,153.5 226.1,153.5 231,145 	"/>
	<polygon class="st8" points="226.1,119.5 216.2,119.5 211.3,128 216.2,136.5 226.1,136.5 231,128 	"/>
	<polygon class="st8" points="226.1,102.5 216.2,102.5 211.3,111 216.2,119.5 226.1,119.5 231,111 	"/>
	<polygon class="st8" points="226.1,85.5 216.2,85.5 211.3,94 216.2,102.5 226.1,102.5 231,94 	"/>
	<polygon class="st8" points="211.4,196 201.5,196 196.6,204.5 201.5,213 211.4,213 216.3,204.5 	"/>
	<polygon class="st8" points="211.4,179 201.5,179 196.6,187.5 201.5,196 211.4,196 216.3,187.5 	"/>
	<polygon class="st8" points="211.4,162 201.5,162 196.6,170.5 201.5,179 211.4,179 216.3,170.5 	"/>
	<polygon class="st8" points="211.4,145 201.5,145 196.6,153.5 201.5,162 211.4,162 216.3,153.5 	"/>
	<polygon class="st8" points="211.4,128 201.5,128 196.6,136.5 201.5,145 211.4,145 216.3,136.5 	"/>
	<polygon class="st8" points="211.4,111 201.5,111 196.6,119.5 201.5,128 211.4,128 216.3,119.5 	"/>
	<polygon class="st8" points="211.4,94 201.5,94 196.6,102.5 201.5,111 211.4,111 216.3,102.5 	"/>
	<polygon class="st8" points="196.6,170.5 186.8,170.5 181.9,179 186.8,187.5 196.6,187.5 201.6,179 	"/>
	<polygon class="st8" points="196.6,136.5 186.8,136.5 181.9,145 186.8,153.5 196.6,153.5 201.6,145 	"/>
	<polygon class="st8" points="196.6,119.5 186.8,119.5 181.9,128 186.8,136.5 196.6,136.5 201.6,128 	"/>
</g>
<g id="AB" class="st0">
	<polygon class="st9" points="211.4,332 201.5,332 196.6,340.5 201.5,349 211.4,349 216.3,340.5 	"/>
	<polygon class="st9" points="211.4,315 201.5,315 196.6,323.5 201.5,332 211.4,332 216.3,323.5 	"/>
	<polygon class="st9" points="211.4,298 201.5,298 196.6,306.5 201.5,315 211.4,315 216.3,306.5 	"/>
	<polygon class="st9" points="196.6,408.5 186.8,408.5 181.9,417 186.8,425.5 196.6,425.5 201.6,417 	"/>
	<polygon class="st9" points="196.6,391.5 186.8,391.5 181.9,400 186.8,408.5 196.6,408.5 201.6,400 	"/>
	<polygon class="st9" points="196.6,374.5 186.8,374.5 181.9,383 186.8,391.5 196.6,391.5 201.6,383 	"/>
	<polygon class="st9" points="196.6,357.5 186.8,357.5 181.9,366 186.8,374.5 196.6,374.5 201.6,366 	"/>
	<polygon class="st9" points="196.6,340.5 186.8,340.5 181.9,349 186.8,357.5 196.6,357.5 201.6,349 	"/>
	<polygon class="st9" points="196.6,323.5 186.8,323.5 181.9,332 186.8,340.5 196.6,340.5 201.6,332 	"/>
	<polygon class="st9" points="196.6,306.5 186.8,306.5 181.9,315 186.8,323.5 196.6,323.5 201.6,315 	"/>
	<polygon class="st9" points="196.6,289.5 186.8,289.5 181.9,298 186.8,306.5 196.6,306.5 201.6,298 	"/>
	<polygon class="st9" points="181.9,417 172.1,417 167.2,425.5 172.1,434 181.9,434 186.9,425.5 	"/>
	<polygon class="st9" points="181.9,400 172.1,400 167.2,408.5 172.1,417 181.9,417 186.9,408.5 	"/>
	<polygon class="st9" points="181.9,383 172.1,383 167.2,391.5 172.1,400 181.9,400 186.9,391.5 	"/>
	<polygon class="st9" points="181.9,366 172.1,366 167.2,374.5 172.1,383 181.9,383 186.9,374.5 	"/>
	<polygon class="st9" points="181.9,349 172.1,349 167.2,357.5 172.1,366 181.9,366 186.9,357.5 	"/>
	<polygon class="st9" points="181.9,332 172.1,332 167.2,340.5 172.1,349 181.9,349 186.9,340.5 	"/>
	<polygon class="st9" points="181.9,315 172.1,315 167.2,323.5 172.1,332 181.9,332 186.9,323.5 	"/>
	<polygon class="st9" points="181.9,298 172.1,298 167.2,306.5 172.1,315 181.9,315 186.9,306.5 	"/>
	<polygon class="st9" points="181.9,281 172.1,281 167.2,289.5 172.1,298 181.9,298 186.9,289.5 	"/>
	<polygon class="st9" points="167.2,408.5 157.4,408.5 152.5,417 157.4,425.5 167.2,425.5 172.1,417 	"/>
	<polygon class="st9" points="167.2,391.5 157.4,391.5 152.5,400 157.4,408.5 167.2,408.5 172.1,400 	"/>
	<polygon class="st9" points="167.2,374.5 157.4,374.5 152.5,383 157.4,391.5 167.2,391.5 172.1,383 	"/>
	<polygon class="st9" points="167.2,357.5 157.4,357.5 152.5,366 157.4,374.5 167.2,374.5 172.1,366 	"/>
	<polygon class="st9" points="167.2,340.5 157.4,340.5 152.5,349 157.4,357.5 167.2,357.5 172.1,349 	"/>
	<polygon class="st9" points="167.2,323.5 157.4,323.5 152.5,332 157.4,340.5 167.2,340.5 172.1,332 	"/>
	<polygon class="st9" points="167.2,306.5 157.4,306.5 152.5,315 157.4,323.5 167.2,323.5 172.1,315 	"/>
	<polygon class="st9" points="167.2,289.5 157.4,289.5 152.5,298 157.4,306.5 167.2,306.5 172.1,298 	"/>
	<polygon class="st9" points="167.2,272.5 157.4,272.5 152.5,281 157.4,289.5 167.2,289.5 172.1,281 	"/>
	<polygon class="st9" points="152.5,400 142.7,400 137.8,408.5 142.7,417 152.5,417 157.4,408.5 	"/>
	<polygon class="st9" points="152.5,383 142.7,383 137.8,391.5 142.7,400 152.5,400 157.4,391.5 	"/>
	<polygon class="st9" points="152.5,366 142.7,366 137.8,374.5 142.7,383 152.5,383 157.4,374.5 	"/>
	<polygon class="st9" points="152.5,349 142.7,349 137.8,357.5 142.7,366 152.5,366 157.4,357.5 	"/>
	<polygon class="st9" points="152.5,332 142.7,332 137.8,340.5 142.7,349 152.5,349 157.4,340.5 	"/>
	<polygon class="st9" points="152.5,315 142.7,315 137.8,323.5 142.7,332 152.5,332 157.4,323.5 	"/>
	<polygon class="st9" points="152.5,298 142.7,298 137.8,306.5 142.7,315 152.5,315 157.4,306.5 	"/>
	<polygon class="st9" points="137.8,340.5 128,340.5 123.1,349 128,357.5 137.8,357.5 142.7,349 	"/>
</g>
<g id="NT" class="st0">
	<polygon class="st10" points="211.4,281 201.5,281 196.6,289.5 201.5,298 211.4,298 216.3,289.5 	"/>
	<polygon class="st11" points="255.5,272.5 245.7,272.5 240.7,281 245.7,289.5 255.5,289.5 260.4,281 	"/>
	<polygon class="st11" points="270.2,281 260.4,281 255.5,289.5 260.4,298 270.2,298 275.1,289.5 	"/>
	<polygon class="st11" points="270.2,264 260.4,264 255.5,272.5 260.4,281 270.2,281 275.1,272.5 	"/>
	<polygon class="st11" points="270.2,247 260.4,247 255.5,255.5 260.4,264 270.2,264 275.1,255.5 	"/>
	<polygon class="st11" points="255.5,289.5 245.7,289.5 240.7,298 245.7,306.5 255.5,306.5 260.4,298 	"/>
	<polygon class="st11" points="255.5,255.5 245.7,255.5 240.7,264 245.7,272.5 255.5,272.5 260.4,264 	"/>
	<polygon class="st11" points="255.5,238.5 245.7,238.5 240.7,247 245.7,255.5 255.5,255.5 260.4,247 	"/>
	<polygon class="st11" points="240.8,281 230.9,281 226,289.5 230.9,298 240.8,298 245.7,289.5 	"/>
	<polygon class="st11" points="240.8,264 230.9,264 226,272.5 230.9,281 240.8,281 245.7,272.5 	"/>
	<polygon class="st11" points="240.8,247 230.9,247 226,255.5 230.9,264 240.8,264 245.7,255.5 	"/>
	<polygon class="st11" points="226.1,272.5 216.2,272.5 211.3,281 216.2,289.5 226.1,289.5 231,281 	"/>
	<polygon class="st11" points="226.1,255.5 216.2,255.5 211.3,264 216.2,272.5 226.1,272.5 231,264 	"/>
	<polygon class="st11" points="226.1,238.5 216.2,238.5 211.3,247 216.2,255.5 226.1,255.5 231,247 	"/>
	<polygon class="st11" points="211.4,264 201.5,264 196.6,272.5 201.5,281 211.4,281 216.3,272.5 	"/>
	<polygon class="st11" points="211.4,247 201.5,247 196.6,255.5 201.5,264 211.4,264 216.3,255.5 	"/>
	<polygon class="st11" points="211.4,230 201.5,230 196.6,238.5 201.5,247 211.4,247 216.3,238.5 	"/>
	<polygon class="st11" points="211.4,213 201.5,213 196.6,221.5 201.5,230 211.4,230 216.3,221.5 	"/>
	<polygon class="st11" points="196.6,272.5 186.8,272.5 181.9,281 186.8,289.5 196.6,289.5 201.6,281 	"/>
	<polygon class="st11" points="196.6,187.5 186.8,187.5 181.9,196 186.8,204.5 196.6,204.5 201.6,196 	"/>
	<polygon class="st11" points="181.9,145 172.1,145 167.2,153.5 172.1,162 181.9,162 186.9,153.5 	"/>
	<polygon class="st11" points="167.2,136.5 157.4,136.5 152.5,145 157.4,153.5 167.2,153.5 172.1,145 	"/>
	<polygon class="st11" points="152.5,128 142.7,128 137.8,136.5 142.7,145 152.5,145 157.4,136.5 	"/>
	<polygon class="st11" points="137.8,255.5 128,255.5 123.1,264 128,272.5 137.8,272.5 142.7,264 	"/>
	<polygon class="st11" points="196.6,255.5 186.8,255.5 181.9,264 186.8,272.5 196.6,272.5 201.6,264 	"/>
	<polygon class="st11" points="196.6,238.5 186.8,238.5 181.9,247 186.8,255.5 196.6,255.5 201.6,247 	"/>
	<polygon class="st11" points="196.6,221.5 186.8,221.5 181.9,230 186.8,238.5 196.6,238.5 201.6,230 	"/>
	<polygon class="st11" points="196.6,204.5 186.8,204.5 181.9,213 186.8,221.5 196.6,221.5 201.6,213 	"/>
	<polygon class="st11" points="181.9,264 172.1,264 167.2,272.5 172.1,281 181.9,281 186.9,272.5 	"/>
	<polygon class="st11" points="181.9,247 172.1,247 167.2,255.5 172.1,264 181.9,264 186.9,255.5 	"/>
	<polygon class="st11" points="181.9,230 172.1,230 167.2,238.5 172.1,247 181.9,247 186.9,238.5 	"/>
	<polygon class="st11" points="181.9,213 172.1,213 167.2,221.5 172.1,230 181.9,230 186.9,221.5 	"/>
	<polygon class="st11" points="181.9,196 172.1,196 167.2,204.5 172.1,213 181.9,213 186.9,204.5 	"/>
	<polygon class="st11" points="181.9,179 172.1,179 167.2,187.5 172.1,196 181.9,196 186.9,187.5 	"/>
	<polygon class="st11" points="181.9,162 172.1,162 167.2,170.5 172.1,179 181.9,179 186.9,170.5 	"/>
	<polygon class="st11" points="167.2,255.5 157.4,255.5 152.5,264 157.4,272.5 167.2,272.5 172.1,264 	"/>
	<polygon class="st11" points="167.2,238.5 157.4,238.5 152.5,247 157.4,255.5 167.2,255.5 172.1,247 	"/>
	<polygon class="st11" points="167.2,221.5 157.4,221.5 152.5,230 157.4,238.5 167.2,238.5 172.1,230 	"/>
	<polygon class="st11" points="167.2,204.5 157.4,204.5 152.5,213 157.4,221.5 167.2,221.5 172.1,213 	"/>
	<polygon class="st11" points="167.2,187.5 157.4,187.5 152.5,196 157.4,204.5 167.2,204.5 172.1,196 	"/>
	<polygon class="st11" points="167.2,170.5 157.4,170.5 152.5,179 157.4,187.5 167.2,187.5 172.1,179 	"/>
	<polygon class="st11" points="167.2,153.5 157.4,153.5 152.5,162 157.4,170.5 167.2,170.5 172.1,162 	"/>
	<polygon class="st11" points="152.5,264 142.7,264 137.8,272.5 142.7,281 152.5,281 157.4,272.5 	"/>
	<polygon class="st11" points="152.5,247 142.7,247 137.8,255.5 142.7,264 152.5,264 157.4,255.5 	"/>
	<polygon class="st11" points="152.5,230 142.7,230 137.8,238.5 142.7,247 152.5,247 157.4,238.5 	"/>
	<polygon class="st11" points="152.5,213 142.7,213 137.8,221.5 142.7,230 152.5,230 157.4,221.5 	"/>
	<polygon class="st11" points="152.5,196 142.7,196 137.8,204.5 142.7,213 152.5,213 157.4,204.5 	"/>
	<polygon class="st11" points="152.5,179 142.7,179 137.8,187.5 142.7,196 152.5,196 157.4,187.5 	"/>
	<polygon class="st11" points="152.5,162 142.7,162 137.8,170.5 142.7,179 152.5,179 157.4,170.5 	"/>
	<polygon class="st11" points="152.5,145 142.7,145 137.8,153.5 142.7,162 152.5,162 157.4,153.5 	"/>
	<polygon class="st11" points="137.8,238.5 128,238.5 123.1,247 128,255.5 137.8,255.5 142.7,247 	"/>
	<polygon class="st11" points="137.8,221.5 128,221.5 123.1,230 128,238.5 137.8,238.5 142.7,230 	"/>
	<polygon class="st11" points="137.8,204.5 128,204.5 123.1,213 128,221.5 137.8,221.5 142.7,213 	"/>
	<polygon class="st11" points="137.8,187.5 128,187.5 123.1,196 128,204.5 137.8,204.5 142.7,196 	"/>
	<polygon class="st11" points="137.8,170.5 128,170.5 123.1,179 128,187.5 137.8,187.5 142.7,179 	"/>
	<polygon class="st11" points="137.8,153.5 128,153.5 123.1,162 128,170.5 137.8,170.5 142.7,162 	"/>
	<polygon class="st11" points="137.8,136.5 128,136.5 123.1,145 128,153.5 137.8,153.5 142.7,145 	"/>
	<polygon class="st11" points="123.1,230 113.3,230 108.4,238.5 113.3,247 123.1,247 128,238.5 	"/>
	<polygon class="st11" points="123.1,213 113.3,213 108.4,221.5 113.3,230 123.1,230 128,221.5 	"/>
	<polygon class="st11" points="123.1,196 113.3,196 108.4,204.5 113.3,213 123.1,213 128,204.5 	"/>
	<polygon class="st11" points="123.1,145 113.3,145 108.4,153.5 113.3,162 123.1,162 128,153.5 	"/>
</g>
<g id="YT" class="st0">
	<polygon class="st12" points="123.1,247 113.3,247 108.4,255.5 113.3,264 123.1,264 128,255.5 	"/>
	<polygon class="st12" points="123.1,179 113.3,179 108.4,187.5 113.3,196 123.1,196 128,187.5 	"/>
	<polygon class="st12" points="123.1,162 113.3,162 108.4,170.5 113.3,179 123.1,179 128,170.5 	"/>
	<polygon class="st12" points="123.1,128 113.3,128 108.4,136.5 113.3,145 123.1,145 128,136.5 	"/>
	<polygon class="st12" points="123.1,111 113.3,111 108.4,119.5 113.3,128 123.1,128 128,119.5 	"/>
	<polygon class="st12" points="108.4,238.5 98.6,238.5 93.7,247 98.6,255.5 108.4,255.5 113.3,247 	"/>
	<polygon class="st12" points="108.4,221.5 98.6,221.5 93.7,230 98.6,238.5 108.4,238.5 113.3,230 	"/>
	<polygon class="st12" points="108.4,204.5 98.6,204.5 93.7,213 98.6,221.5 108.4,221.5 113.3,213 	"/>
	<polygon class="st12" points="108.4,187.5 98.6,187.5 93.7,196 98.6,204.5 108.4,204.5 113.3,196 	"/>
	<polygon class="st12" points="108.4,170.5 98.6,170.5 93.7,179 98.6,187.5 108.4,187.5 113.3,179 	"/>
	<polygon class="st12" points="108.4,153.5 98.6,153.5 93.7,162 98.6,170.5 108.4,170.5 113.3,162 	"/>
	<polygon class="st12" points="108.4,136.5 98.6,136.5 93.7,145 98.6,153.5 108.4,153.5 113.3,145 	"/>
	<polygon class="st12" points="93.7,230 83.9,230 79,238.5 83.9,247 93.7,247 98.6,238.5 	"/>
	<polygon class="st12" points="93.7,213 83.9,213 79,221.5 83.9,230 93.7,230 98.6,221.5 	"/>
	<polygon class="st12" points="93.7,196 83.9,196 79,204.5 83.9,213 93.7,213 98.6,204.5 	"/>
	<polygon class="st12" points="93.7,179 83.9,179 79,187.5 83.9,196 93.7,196 98.6,187.5 	"/>
	<polygon class="st12" points="93.7,162 83.9,162 79,170.5 83.9,179 93.7,179 98.6,170.5 	"/>
	<polygon class="st12" points="93.7,145 83.9,145 79,153.5 83.9,162 93.7,162 98.6,153.5 	"/>
	<polygon class="st12" points="79,221.5 69.2,221.5 64.3,230 69.2,238.5 79,238.5 83.9,230 	"/>
	<polygon class="st12" points="79,204.5 69.2,204.5 64.3,213 69.2,221.5 79,221.5 83.9,213 	"/>
	<polygon class="st12" points="79,187.5 69.2,187.5 64.3,196 69.2,204.5 79,204.5 83.9,196 	"/>
	<polygon class="st12" points="79,170.5 69.2,170.5 64.3,179 69.2,187.5 79,187.5 83.9,179 	"/>
	<polygon class="st12" points="64.3,213 54.5,213 49.6,221.5 54.5,230 64.3,230 69.2,221.5 	"/>
	<polygon class="st12" points="64.3,196 54.5,196 49.6,204.5 54.5,213 64.3,213 69.2,204.5 	"/>
	<polygon class="st12" points="64.3,179 54.5,179 49.6,187.5 54.5,196 64.3,196 69.2,187.5 	"/>
	<polygon class="st12" points="49.6,204.5 39.8,204.5 34.9,213 39.8,221.5 49.6,221.5 54.5,213 	"/>
	<polygon class="st12" points="49.6,187.5 39.8,187.5 34.9,196 39.8,204.5 49.6,204.5 54.5,196 	"/>
</g>
<g id="BC" class="st0">
	<polygon class="st13" points="152.5,281 142.7,281 137.8,289.5 142.7,298 152.5,298 157.4,289.5 	"/>
	<polygon class="st13" points="137.8,391.5 128,391.5 123.1,400 128,408.5 137.8,408.5 142.7,400 	"/>
	<polygon class="st13" points="137.8,374.5 128,374.5 123.1,383 128,391.5 137.8,391.5 142.7,383 	"/>
	<polygon class="st13" points="137.8,357.5 128,357.5 123.1,366 128,374.5 137.8,374.5 142.7,366 	"/>
	<polygon class="st13" points="137.8,323.5 128,323.5 123.1,332 128,340.5 137.8,340.5 142.7,332 	"/>
	<polygon class="st13" points="137.8,306.5 128,306.5 123.1,315 128,323.5 137.8,323.5 142.7,315 	"/>
	<polygon class="st13" points="137.8,289.5 128,289.5 123.1,298 128,306.5 137.8,306.5 142.7,298 	"/>
	<polygon class="st13" points="137.8,272.5 128,272.5 123.1,281 128,289.5 137.8,289.5 142.7,281 	"/>
	<polygon class="st13" points="123.1,400 113.3,400 108.4,408.5 113.3,417 123.1,417 128,408.5 	"/>
	<polygon class="st13" points="123.1,383 113.3,383 108.4,391.5 113.3,400 123.1,400 128,391.5 	"/>
	<polygon class="st13" points="123.1,366 113.3,366 108.4,374.5 113.3,383 123.1,383 128,374.5 	"/>
	<polygon class="st13" points="123.1,349 113.3,349 108.4,357.5 113.3,366 123.1,366 128,357.5 	"/>
	<polygon class="st13" points="123.1,332 113.3,332 108.4,340.5 113.3,349 123.1,349 128,340.5 	"/>
	<polygon class="st13" points="123.1,315 113.3,315 108.4,323.5 113.3,332 123.1,332 128,323.5 	"/>
	<polygon class="st13" points="123.1,298 113.3,298 108.4,306.5 113.3,315 123.1,315 128,306.5 	"/>
	<polygon class="st13" points="123.1,281 113.3,281 108.4,289.5 113.3,298 123.1,298 128,289.5 	"/>
	<polygon class="st13" points="123.1,264 113.3,264 108.4,272.5 113.3,281 123.1,281 128,272.5 	"/>
	<polygon class="st13" points="108.4,391.5 98.6,391.5 93.7,400 98.6,408.5 108.4,408.5 113.3,400 	"/>
	<polygon class="st13" points="108.4,374.5 98.6,374.5 93.7,383 98.6,391.5 108.4,391.5 113.3,383 	"/>
	<polygon class="st13" points="108.4,357.5 98.6,357.5 93.7,366 98.6,374.5 108.4,374.5 113.3,366 	"/>
	<polygon class="st13" points="108.4,340.5 98.6,340.5 93.7,349 98.6,357.5 108.4,357.5 113.3,349 	"/>
	<polygon class="st13" points="108.4,323.5 98.6,323.5 93.7,332 98.6,340.5 108.4,340.5 113.3,332 	"/>
	<polygon class="st13" points="108.4,306.5 98.6,306.5 93.7,315 98.6,323.5 108.4,323.5 113.3,315 	"/>
	<polygon class="st13" points="108.4,289.5 98.6,289.5 93.7,298 98.6,306.5 108.4,306.5 113.3,298 	"/>
	<polygon class="st13" points="108.4,272.5 98.6,272.5 93.7,281 98.6,289.5 108.4,289.5 113.3,281 	"/>
	<polygon class="st13" points="108.4,255.5 98.6,255.5 93.7,264 98.6,272.5 108.4,272.5 113.3,264 	"/>
	<polygon class="st13" points="93.7,383 83.9,383 79,391.5 83.9,400 93.7,400 98.6,391.5 	"/>
	<polygon class="st13" points="93.7,366 83.9,366 79,374.5 83.9,383 93.7,383 98.6,374.5 	"/>
	<polygon class="st13" points="93.7,349 83.9,349 79,357.5 83.9,366 93.7,366 98.6,357.5 	"/>
	<polygon class="st13" points="93.7,332 83.9,332 79,340.5 83.9,349 93.7,349 98.6,340.5 	"/>
	<polygon class="st13" points="93.7,315 83.9,315 79,323.5 83.9,332 93.7,332 98.6,323.5 	"/>
	<polygon class="st13" points="93.7,298 83.9,298 79,306.5 83.9,315 93.7,315 98.6,306.5 	"/>
	<polygon class="st13" points="93.7,281 83.9,281 79,289.5 83.9,298 93.7,298 98.6,289.5 	"/>
	<polygon class="st13" points="93.7,264 83.9,264 79,272.5 83.9,281 93.7,281 98.6,272.5 	"/>
	<polygon class="st13" points="93.7,247 83.9,247 79,255.5 83.9,264 93.7,264 98.6,255.5 	"/>
	<polygon class="st13" points="79,391.5 69.2,391.5 64.3,400 69.2,408.5 79,408.5 83.9,400 	"/>
	<polygon class="st13" points="79,374.5 69.2,374.5 64.3,383 69.2,391.5 79,391.5 83.9,383 	"/>
	<polygon class="st13" points="79,357.5 69.2,357.5 64.3,366 69.2,374.5 79,374.5 83.9,366 	"/>
	<polygon class="st13" points="79,340.5 69.2,340.5 64.3,349 69.2,357.5 79,357.5 83.9,349 	"/>
	<polygon class="st13" points="79,323.5 69.2,323.5 64.3,332 69.2,340.5 79,340.5 83.9,332 	"/>
	<polygon class="st13" points="79,306.5 69.2,306.5 64.3,315 69.2,323.5 79,323.5 83.9,315 	"/>
	<polygon class="st13" points="79,289.5 69.2,289.5 64.3,298 69.2,306.5 79,306.5 83.9,298 	"/>
	<polygon class="st13" points="79,272.5 69.2,272.5 64.3,281 69.2,289.5 79,289.5 83.9,281 	"/>
	<polygon class="st13" points="79,255.5 69.2,255.5 64.3,264 69.2,272.5 79,272.5 83.9,264 	"/>
	<polygon class="st13" points="79,238.5 69.2,238.5 64.3,247 69.2,255.5 79,255.5 83.9,247 	"/>
	<polygon class="st13" points="64.3,383 54.5,383 49.6,391.5 54.5,400 64.3,400 69.2,391.5 	"/>
	<polygon class="st13" points="64.3,366 54.5,366 49.6,374.5 54.5,383 64.3,383 69.2,374.5 	"/>
	<polygon class="st13" points="64.3,349 54.5,349 49.6,357.5 54.5,366 64.3,366 69.2,357.5 	"/>
	<polygon class="st13" points="64.3,332 54.5,332 49.6,340.5 54.5,349 64.3,349 69.2,340.5 	"/>
	<polygon class="st13" points="64.3,315 54.5,315 49.6,323.5 54.5,332 64.3,332 69.2,323.5 	"/>
	<polygon class="st13" points="64.3,298 54.5,298 49.6,306.5 54.5,315 64.3,315 69.2,306.5 	"/>
	<polygon class="st13" points="64.3,281 54.5,281 49.6,289.5 54.5,298 64.3,298 69.2,289.5 	"/>
	<polygon class="st13" points="64.3,264 54.5,264 49.6,272.5 54.5,281 64.3,281 69.2,272.5 	"/>
	<polygon class="st13" points="64.3,247 54.5,247 49.6,255.5 54.5,264 64.3,264 69.2,255.5 	"/>
	<polygon class="st13" points="64.3,230 54.5,230 49.6,238.5 54.5,247 64.3,247 69.2,238.5 	"/>
	<polygon class="st13" points="49.6,306.5 39.8,306.5 34.9,315 39.8,323.5 49.6,323.5 54.5,315 	"/>
	<polygon class="st13" points="49.6,221.5 39.8,221.5 34.9,230 39.8,238.5 49.6,238.5 54.5,230 	"/>
</g>
</svg>
